<svg width="40" height="40" fill="none" xmlns="http://www.w3.org/2000/svg"><path d="M21.668 10.834a1.667 1.667 0 10-3.333 0V20c0 .442.175.866.488 1.179l5 5a1.667 1.667 0 102.357-2.357l-4.512-4.512v-8.476z" fill="#F89828"/><path fill-rule="evenodd" clip-rule="evenodd" d="M20.001 1.667C9.876 1.667 1.668 9.875 1.668 20c0 10.125 8.208 18.334 18.333 18.334 10.125 0 18.334-8.209 18.334-18.334S30.126 1.667 20 1.667zM5.001 20c0-8.284 6.716-15 15-15 8.285 0 15 6.716 15 15 0 8.285-6.715 15-15 15-8.284 0-15-6.715-15-15z" fill="#F89828"/></svg>