<svg width="40" height="40" fill="none" xmlns="http://www.w3.org/2000/svg"><path fill-rule="evenodd" clip-rule="evenodd" d="M19.999 12.916a3.333 3.333 0 100 6.667 3.333 3.333 0 000-6.667zm-6.667 3.334a6.667 6.667 0 1113.333 0 6.667 6.667 0 01-13.333 0z" fill="#F89828"/><path fill-rule="evenodd" clip-rule="evenodd" d="M19.999 5.416c-6.033 0-10.834 4.727-10.834 10.45 0 4.664 2.804 9.375 5.868 13.08A46.516 46.516 0 0020 34.067a46.516 46.516 0 004.966-5.12c3.064-3.705 5.867-8.416 5.867-13.08 0-5.723-4.8-10.45-10.833-10.45zm0 30.834a270.167 270.167 0 01-1.032 1.308l-.005-.003-.01-.008-.031-.025a28.72 28.72 0 01-.537-.445 49.866 49.866 0 01-5.92-6.006c-3.185-3.852-6.632-9.333-6.632-15.206 0-7.66 6.392-13.782 14.167-13.782 7.774 0 14.166 6.122 14.166 13.782 0 5.873-3.446 11.354-6.632 15.206a49.866 49.866 0 01-5.92 6.006 28.72 28.72 0 01-.536.445l-.033.026-.009.007-.003.002s-.002.002-1.033-1.307zm0 0l1.031 1.309a1.668 1.668 0 01-2.064 0L20 36.248z" fill="#F89828"/></svg>